<svg id="visual" viewBox="0 0 900 900" width="900" height="900" xmlns="http://www.w3.org/2000/svg" xmlns:xlink="http://www.w3.org/1999/xlink" version="1.1"><path d="M890 900L885.5 891.2C881 882.3 872 864.7 870.5 847C869 829.3 875 811.7 866 794C857 776.3 833 758.7 836 741C839 723.3 869 705.7 872 688C875 670.3 851 652.7 840.5 635C830 617.3 833 599.7 834.5 582C836 564.3 836 546.7 842 529C848 511.3 860 493.7 861.5 476.2C863 458.7 854 441.3 842 423.8C830 406.3 815 388.7 819.5 371C824 353.3 848 335.7 849.5 318C851 300.3 830 282.7 831.5 265C833 247.3 857 229.7 857 212C857 194.3 833 176.7 822.5 159C812 141.3 815 123.7 830 106C845 88.3 872 70.7 870.5 53C869 35.3 839 17.7 824 8.8L809 0L900 0L900 8.8C900 17.7 900 35.3 900 53C900 70.7 900 88.3 900 106C900 123.7 900 141.3 900 159C900 176.7 900 194.3 900 212C900 229.7 900 247.3 900 265C900 282.7 900 300.3 900 318C900 335.7 900 353.3 900 371C900 388.7 900 406.3 900 423.8C900 441.3 900 458.7 900 476.2C900 493.7 900 511.3 900 529C900 546.7 900 564.3 900 582C900 599.7 900 617.3 900 635C900 652.7 900 670.3 900 688C900 705.7 900 723.3 900 741C900 758.7 900 776.3 900 794C900 811.7 900 829.3 900 847C900 864.7 900 882.3 900 891.2L900 900Z" fill="#fdfeff"></path><path d="M710 900L704 891.2C698 882.3 686 864.7 690.5 847C695 829.3 716 811.7 705.5 794C695 776.3 653 758.7 663.5 741C674 723.3 737 705.7 758 688C779 670.3 758 652.7 746 635C734 617.3 731 599.7 738.5 582C746 564.3 764 546.7 782 529C800 511.3 818 493.7 807.5 476.2C797 458.7 758 441.3 731 423.8C704 406.3 689 388.7 686 371C683 353.3 692 335.7 711.5 318C731 300.3 761 282.7 762.5 265C764 247.3 737 229.7 720.5 212C704 194.3 698 176.7 696.5 159C695 141.3 698 123.7 710 106C722 88.3 743 70.7 749 53C755 35.3 746 17.7 741.5 8.8L737 0L810 0L825 8.8C840 17.7 870 35.3 871.5 53C873 70.7 846 88.3 831 106C816 123.7 813 141.3 823.5 159C834 176.7 858 194.3 858 212C858 229.7 834 247.3 832.5 265C831 282.7 852 300.3 850.5 318C849 335.7 825 353.3 820.5 371C816 388.7 831 406.3 843 423.8C855 441.3 864 458.7 862.5 476.2C861 493.7 849 511.3 843 529C837 546.7 837 564.3 835.5 582C834 599.7 831 617.3 841.5 635C852 652.7 876 670.3 873 688C870 705.7 840 723.3 837 741C834 758.7 858 776.3 867 794C876 811.7 870 829.3 871.5 847C873 864.7 882 882.3 886.5 891.2L891 900Z" fill="#e9f4ff"></path><path d="M584 900L582.5 891.2C581 882.3 578 864.7 590 847C602 829.3 629 811.7 632 794C635 776.3 614 758.7 629 741C644 723.3 695 705.7 702.5 688C710 670.3 674 652.7 651.5 635C629 617.3 620 599.7 623 582C626 564.3 641 546.7 660.5 529C680 511.3 704 493.7 707 476.2C710 458.7 692 441.3 683 423.8C674 406.3 674 388.7 663.5 371C653 353.3 632 335.7 644 318C656 300.3 701 282.7 707 265C713 247.3 680 229.7 656 212C632 194.3 617 176.7 620 159C623 141.3 644 123.7 651.5 106C659 88.3 653 70.7 657.5 53C662 35.3 677 17.7 684.5 8.8L692 0L738 0L742.5 8.8C747 17.7 756 35.3 750 53C744 70.7 723 88.3 711 106C699 123.7 696 141.3 697.5 159C699 176.7 705 194.3 721.5 212C738 229.7 765 247.3 763.5 265C762 282.7 732 300.3 712.5 318C693 335.7 684 353.3 687 371C690 388.7 705 406.3 732 423.8C759 441.3 798 458.7 808.5 476.2C819 493.7 801 511.3 783 529C765 546.7 747 564.3 739.5 582C732 599.7 735 617.3 747 635C759 652.7 780 670.3 759 688C738 705.7 675 723.3 664.5 741C654 758.7 696 776.3 706.5 794C717 811.7 696 829.3 691.5 847C687 864.7 699 882.3 705 891.2L711 900Z" fill="#d6e9ff"></path><path d="M422 900L441.5 891.2C461 882.3 500 864.7 528.5 847C557 829.3 575 811.7 576.5 794C578 776.3 563 758.7 572 741C581 723.3 614 705.7 621.5 688C629 670.3 611 652.7 584 635C557 617.3 521 599.7 515 582C509 564.3 533 546.7 545 529C557 511.3 557 493.7 576.5 476.2C596 458.7 635 441.3 632 423.8C629 406.3 584 388.7 551 371C518 353.3 497 335.7 527 318C557 300.3 638 282.7 663.5 265C689 247.3 659 229.7 638 212C617 194.3 605 176.7 609.5 159C614 141.3 635 123.7 641 106C647 88.3 638 70.7 629 53C620 35.3 611 17.7 606.5 8.8L602 0L693 0L685.5 8.8C678 17.7 663 35.3 658.5 53C654 70.7 660 88.3 652.5 106C645 123.7 624 141.3 621 159C618 176.7 633 194.3 657 212C681 229.7 714 247.3 708 265C702 282.7 657 300.3 645 318C633 335.7 654 353.3 664.5 371C675 388.7 675 406.3 684 423.8C693 441.3 711 458.7 708 476.2C705 493.7 681 511.3 661.5 529C642 546.7 627 564.3 624 582C621 599.7 630 617.3 652.5 635C675 652.7 711 670.3 703.5 688C696 705.7 645 723.3 630 741C615 758.7 636 776.3 633 794C630 811.7 603 829.3 591 847C579 864.7 582 882.3 583.5 891.2L585 900Z" fill="#c4deff"></path><path d="M395 900L419 891.2C443 882.3 491 864.7 519.5 847C548 829.3 557 811.7 549.5 794C542 776.3 518 758.7 521 741C524 723.3 554 705.7 566 688C578 670.3 572 652.7 546.5 635C521 617.3 476 599.7 473 582C470 564.3 509 546.7 527 529C545 511.3 542 493.7 551 476.2C560 458.7 581 441.3 579.5 423.8C578 406.3 554 388.7 531.5 371C509 353.3 488 335.7 512 318C536 300.3 605 282.7 621.5 265C638 247.3 602 229.7 582.5 212C563 194.3 560 176.7 569 159C578 141.3 599 123.7 605 106C611 88.3 602 70.7 590 53C578 35.3 563 17.7 555.5 8.8L548 0L603 0L607.5 8.8C612 17.7 621 35.3 630 53C639 70.7 648 88.3 642 106C636 123.7 615 141.3 610.5 159C606 176.7 618 194.3 639 212C660 229.7 690 247.3 664.5 265C639 282.7 558 300.3 528 318C498 335.7 519 353.3 552 371C585 388.7 630 406.3 633 423.8C636 441.3 597 458.7 577.5 476.2C558 493.7 558 511.3 546 529C534 546.7 510 564.3 516 582C522 599.7 558 617.3 585 635C612 652.7 630 670.3 622.5 688C615 705.7 582 723.3 573 741C564 758.7 579 776.3 577.5 794C576 811.7 558 829.3 529.5 847C501 864.7 462 882.3 442.5 891.2L423 900Z" fill="#b3d2ff"></path><path d="M368 900L354.5 891.2C341 882.3 314 864.7 311 847C308 829.3 329 811.7 357.5 794C386 776.3 422 758.7 428 741C434 723.3 410 705.7 398 688C386 670.3 386 652.7 374 635C362 617.3 338 599.7 321.5 582C305 564.3 296 546.7 287 529C278 511.3 269 493.7 291.5 476.2C314 458.7 368 441.3 405.5 423.8C443 406.3 464 388.7 431 371C398 353.3 311 335.7 332 318C353 300.3 482 282.7 513.5 265C545 247.3 479 229.7 449 212C419 194.3 425 176.7 395 159C365 141.3 299 123.7 293 106C287 88.3 341 70.7 371 53C401 35.3 407 17.7 410 8.8L413 0L549 0L556.5 8.8C564 17.7 579 35.3 591 53C603 70.7 612 88.3 606 106C600 123.7 579 141.3 570 159C561 176.7 564 194.3 583.5 212C603 229.7 639 247.3 622.5 265C606 282.7 537 300.3 513 318C489 335.7 510 353.3 532.5 371C555 388.7 579 406.3 580.5 423.8C582 441.3 561 458.7 552 476.2C543 493.7 546 511.3 528 529C510 546.7 471 564.3 474 582C477 599.7 522 617.3 547.5 635C573 652.7 579 670.3 567 688C555 705.7 525 723.3 522 741C519 758.7 543 776.3 550.5 794C558 811.7 549 829.3 520.5 847C492 864.7 444 882.3 420 891.2L396 900Z" fill="#a3c7fe"></path><path d="M359 900L347 891.2C335 882.3 311 864.7 306.5 847C302 829.3 317 811.7 336.5 794C356 776.3 380 758.7 380 741C380 723.3 356 705.7 335 688C314 670.3 296 652.7 284 635C272 617.3 266 599.7 254 582C242 564.3 224 546.7 219.5 529C215 511.3 224 493.7 249.5 476.2C275 458.7 317 441.3 342.5 423.8C368 406.3 377 388.7 353 371C329 353.3 272 335.7 303.5 318C335 300.3 455 282.7 486.5 265C518 247.3 461 229.7 434 212C407 194.3 410 176.7 381.5 159C353 141.3 293 123.7 275 106C257 88.3 281 70.7 293 53C305 35.3 305 17.7 305 8.8L305 0L414 0L411 8.8C408 17.7 402 35.3 372 53C342 70.7 288 88.3 294 106C300 123.7 366 141.3 396 159C426 176.7 420 194.3 450 212C480 229.7 546 247.3 514.5 265C483 282.7 354 300.3 333 318C312 335.7 399 353.3 432 371C465 388.7 444 406.3 406.5 423.8C369 441.3 315 458.7 292.5 476.2C270 493.7 279 511.3 288 529C297 546.7 306 564.3 322.5 582C339 599.7 363 617.3 375 635C387 652.7 387 670.3 399 688C411 705.7 435 723.3 429 741C423 758.7 387 776.3 358.5 794C330 811.7 309 829.3 312 847C315 864.7 342 882.3 355.5 891.2L369 900Z" fill="#93bbfe"></path><path d="M170 900L179 891.2C188 882.3 206 864.7 198.5 847C191 829.3 158 811.7 150.5 794C143 776.3 161 758.7 155 741C149 723.3 119 705.7 110 688C101 670.3 113 652.7 129.5 635C146 617.3 167 599.7 179 582C191 564.3 194 546.7 186.5 529C179 511.3 161 493.7 165.5 476.2C170 458.7 197 441.3 197 423.8C197 406.3 170 388.7 159.5 371C149 353.3 155 335.7 144.5 318C134 300.3 107 282.7 113 265C119 247.3 158 229.7 183.5 212C209 194.3 221 176.7 221 159C221 141.3 209 123.7 204.5 106C200 88.3 203 70.7 189.5 53C176 35.3 146 17.7 131 8.8L116 0L306 0L306 8.8C306 17.7 306 35.3 294 53C282 70.7 258 88.3 276 106C294 123.7 354 141.3 382.5 159C411 176.7 408 194.3 435 212C462 229.7 519 247.3 487.5 265C456 282.7 336 300.3 304.5 318C273 335.7 330 353.3 354 371C378 388.7 369 406.3 343.5 423.8C318 441.3 276 458.7 250.5 476.2C225 493.7 216 511.3 220.5 529C225 546.7 243 564.3 255 582C267 599.7 273 617.3 285 635C297 652.7 315 670.3 336 688C357 705.7 381 723.3 381 741C381 758.7 357 776.3 337.5 794C318 811.7 303 829.3 307.5 847C312 864.7 336 882.3 348 891.2L360 900Z" fill="#85affc"></path><path d="M89 900L98 891.2C107 882.3 125 864.7 125 847C125 829.3 107 811.7 107 794C107 776.3 125 758.7 120.5 741C116 723.3 89 705.7 71 688C53 670.3 44 652.7 57.5 635C71 617.3 107 599.7 122 582C137 564.3 131 546.7 114.5 529C98 511.3 71 493.7 77 476.2C83 458.7 122 441.3 137 423.8C152 406.3 143 388.7 137 371C131 353.3 128 335.7 119 318C110 300.3 95 282.7 105.5 265C116 247.3 152 229.7 167 212C182 194.3 176 176.7 173 159C170 141.3 170 123.7 164 106C158 88.3 146 70.7 132.5 53C119 35.3 104 17.7 96.5 8.8L89 0L117 0L132 8.8C147 17.7 177 35.3 190.5 53C204 70.7 201 88.3 205.5 106C210 123.7 222 141.3 222 159C222 176.7 210 194.3 184.5 212C159 229.7 120 247.3 114 265C108 282.7 135 300.3 145.5 318C156 335.7 150 353.3 160.5 371C171 388.7 198 406.3 198 423.8C198 441.3 171 458.7 166.5 476.2C162 493.7 180 511.3 187.5 529C195 546.7 192 564.3 180 582C168 599.7 147 617.3 130.5 635C114 652.7 102 670.3 111 688C120 705.7 150 723.3 156 741C162 758.7 144 776.3 151.5 794C159 811.7 192 829.3 199.5 847C207 864.7 189 882.3 180 891.2L171 900Z" fill="#78a3fb"></path><path d="M44 900L56 891.2C68 882.3 92 864.7 90.5 847C89 829.3 62 811.7 54.5 794C47 776.3 59 758.7 62 741C65 723.3 59 705.7 48.5 688C38 670.3 23 652.7 30.5 635C38 617.3 68 599.7 81.5 582C95 564.3 92 546.7 77 529C62 511.3 35 493.7 38 476.2C41 458.7 74 441.3 89 423.8C104 406.3 101 388.7 92 371C83 353.3 68 335.7 63.5 318C59 300.3 65 282.7 77 265C89 247.3 107 229.7 114.5 212C122 194.3 119 176.7 113 159C107 141.3 98 123.7 99.5 106C101 88.3 113 70.7 113 53C113 35.3 101 17.7 95 8.8L89 0L90 0L97.5 8.8C105 17.7 120 35.3 133.5 53C147 70.7 159 88.3 165 106C171 123.7 171 141.3 174 159C177 176.7 183 194.3 168 212C153 229.7 117 247.3 106.5 265C96 282.7 111 300.3 120 318C129 335.7 132 353.3 138 371C144 388.7 153 406.3 138 423.8C123 441.3 84 458.7 78 476.2C72 493.7 99 511.3 115.5 529C132 546.7 138 564.3 123 582C108 599.7 72 617.3 58.5 635C45 652.7 54 670.3 72 688C90 705.7 117 723.3 121.5 741C126 758.7 108 776.3 108 794C108 811.7 126 829.3 126 847C126 864.7 108 882.3 99 891.2L90 900Z" fill="#6d96f9"></path><path d="M17 900L18.5 891.2C20 882.3 23 864.7 23 847C23 829.3 20 811.7 18.5 794C17 776.3 17 758.7 15.5 741C14 723.3 11 705.7 9.5 688C8 670.3 8 652.7 12.5 635C17 617.3 26 599.7 30.5 582C35 564.3 35 546.7 29.2 529C23.3 511.3 11.7 493.7 14.7 476.2C17.7 458.7 35.3 441.3 42.7 423.8C50 406.3 47 388.7 38.2 371C29.3 353.3 14.7 335.7 8.7 318C2.7 300.3 5.3 282.7 15.7 265C26 247.3 44 229.7 50 212C56 194.3 50 176.7 42.5 159C35 141.3 26 123.7 27.5 106C29 88.3 41 70.7 42.5 53C44 35.3 35 17.7 30.5 8.8L26 0L90 0L96 8.8C102 17.7 114 35.3 114 53C114 70.7 102 88.3 100.5 106C99 123.7 108 141.3 114 159C120 176.7 123 194.3 115.5 212C108 229.7 90 247.3 78 265C66 282.7 60 300.3 64.5 318C69 335.7 84 353.3 93 371C102 388.7 105 406.3 90 423.8C75 441.3 42 458.7 39 476.2C36 493.7 63 511.3 78 529C93 546.7 96 564.3 82.5 582C69 599.7 39 617.3 31.5 635C24 652.7 39 670.3 49.5 688C60 705.7 66 723.3 63 741C60 758.7 48 776.3 55.5 794C63 811.7 90 829.3 91.5 847C93 864.7 69 882.3 57 891.2L45 900Z" fill="#6489f6"></path><path d="M0 900L0 891.2C0 882.3 0 864.7 0 847C0 829.3 0 811.7 0 794C0 776.3 0 758.7 0 741C0 723.3 0 705.7 0 688C0 670.3 0 652.7 0 635C0 617.3 0 599.7 0 582C0 564.3 0 546.7 0 529C0 511.3 0 493.7 0 476.2C0 458.7 0 441.3 0 423.8C0 406.3 0 388.7 0 371C0 353.3 0 335.7 0 318C0 300.3 0 282.7 0 265C0 247.3 0 229.7 0 212C0 194.3 0 176.7 0 159C0 141.3 0 123.7 0 106C0 88.3 0 70.7 0 53C0 35.3 0 17.7 0 8.8L0 0L27 0L31.5 8.8C36 17.7 45 35.3 43.5 53C42 70.7 30 88.3 28.5 106C27 123.7 36 141.3 43.5 159C51 176.7 57 194.3 51 212C45 229.7 27 247.3 16.5 265C6 282.7 3 300.3 9 318C15 335.7 30 353.3 39 371C48 388.7 51 406.3 43.5 423.8C36 441.3 18 458.7 15 476.2C12 493.7 24 511.3 30 529C36 546.7 36 564.3 31.5 582C27 599.7 18 617.3 13.5 635C9 652.7 9 670.3 10.5 688C12 705.7 15 723.3 16.5 741C18 758.7 18 776.3 19.5 794C21 811.7 24 829.3 24 847C24 864.7 21 882.3 19.5 891.2L18 900Z" fill="#5c7cf2"></path></svg>