<svg id="visual" viewBox="0 0 900 450" width="900" height="450" xmlns="http://www.w3.org/2000/svg" xmlns:xlink="http://www.w3.org/1999/xlink" version="1.1"><rect x="0" y="0" width="900" height="450" fill="#fdfeff"></rect><path d="M404 0L421 0L421 64L426 64L426 129L425 129L425 193L430 193L430 257L417 257L417 321L409 321L409 386L416 386L416 450L0 450L0 386L0 386L0 321L0 321L0 257L0 257L0 193L0 193L0 129L0 129L0 64L0 64L0 0L0 0Z" fill="#ecf1ff"></path><path d="M369 0L388 0L388 64L387 64L387 129L369 129L369 193L384 193L384 257L372 257L372 321L383 321L383 386L372 386L372 450L0 450L0 386L0 386L0 321L0 321L0 257L0 257L0 193L0 193L0 129L0 129L0 64L0 64L0 0L0 0Z" fill="#d7e0ff"></path><path d="M334 0L353 0L353 64L339 64L339 129L340 129L340 193L345 193L345 257L356 257L356 321L352 321L352 386L335 386L335 450L0 450L0 386L0 386L0 321L0 321L0 257L0 257L0 193L0 193L0 129L0 129L0 64L0 64L0 0L0 0Z" fill="#c2d0fe"></path><path d="M323 0L323 0L323 64L316 64L316 129L310 129L310 193L303 193L303 257L318 257L318 321L324 321L324 386L309 386L309 450L0 450L0 386L0 386L0 321L0 321L0 257L0 257L0 193L0 193L0 129L0 129L0 64L0 64L0 0L0 0Z" fill="#afbffd"></path><path d="M280 0L266 0L266 64L271 64L271 129L265 129L265 193L288 193L288 257L273 257L273 321L273 321L273 386L269 386L269 450L0 450L0 386L0 386L0 321L0 321L0 257L0 257L0 193L0 193L0 129L0 129L0 64L0 64L0 0L0 0Z" fill="#9caefb"></path><path d="M247 0L238 0L238 64L239 64L239 129L241 129L241 193L253 193L253 257L236 257L236 321L241 321L241 386L245 386L245 450L0 450L0 386L0 386L0 321L0 321L0 257L0 257L0 193L0 193L0 129L0 129L0 64L0 64L0 0L0 0Z" fill="#8b9df9"></path><path d="M201 0L206 0L206 64L218 64L218 129L197 129L197 193L210 193L210 257L207 257L207 321L209 321L209 386L222 386L222 450L0 450L0 386L0 386L0 321L0 321L0 257L0 257L0 193L0 193L0 129L0 129L0 64L0 64L0 0L0 0Z" fill="#7a8bf5"></path><path d="M166 0L173 0L173 64L168 64L168 129L166 129L166 193L179 193L179 257L180 257L180 321L164 321L164 386L169 386L169 450L0 450L0 386L0 386L0 321L0 321L0 257L0 257L0 193L0 193L0 129L0 129L0 64L0 64L0 0L0 0Z" fill="#6a7af1"></path><path d="M149 0L126 0L126 64L139 64L139 129L139 129L139 193L132 193L132 257L136 257L136 321L135 321L135 386L130 386L130 450L0 450L0 386L0 386L0 321L0 321L0 257L0 257L0 193L0 193L0 129L0 129L0 64L0 64L0 0L0 0Z" fill="#5b68ec"></path><path d="M107 0L116 0L116 64L103 64L103 129L98 129L98 193L99 193L99 257L99 257L99 321L105 321L105 386L110 386L110 450L0 450L0 386L0 386L0 321L0 321L0 257L0 257L0 193L0 193L0 129L0 129L0 64L0 64L0 0L0 0Z" fill="#4d55e7"></path><path d="M79 0L64 0L64 64L72 64L72 129L65 129L65 193L60 193L60 257L76 257L76 321L70 321L70 386L60 386L60 450L0 450L0 386L0 386L0 321L0 321L0 257L0 257L0 193L0 193L0 129L0 129L0 64L0 64L0 0L0 0Z" fill="#3f41e0"></path><path d="M32 0L45 0L45 64L33 64L33 129L41 129L41 193L48 193L48 257L29 257L29 321L40 321L40 386L47 386L47 450L0 450L0 386L0 386L0 321L0 321L0 257L0 257L0 193L0 193L0 129L0 129L0 64L0 64L0 0L0 0Z" fill="#332ad8"></path></svg>