<svg id="visual" viewBox="0 0 450 900" width="450" height="900" xmlns="http://www.w3.org/2000/svg" xmlns:xlink="http://www.w3.org/1999/xlink" version="1.1"><rect x="0" y="0" width="450" height="900" fill="#fdfeff"></rect><path d="M0 322L64 322L64 335L129 335L129 339L193 339L193 338L257 338L257 342L321 342L321 331L386 331L386 325L450 325L450 331L450 0L450 0L386 0L386 0L321 0L321 0L257 0L257 0L193 0L193 0L129 0L129 0L64 0L64 0L0 0Z" fill="#ecf1ff"></path><path d="M0 293L64 293L64 309L129 309L129 308L193 308L193 294L257 294L257 305L321 305L321 296L386 296L386 305L450 305L450 295L450 0L450 0L386 0L386 0L321 0L321 0L257 0L257 0L193 0L193 0L129 0L129 0L64 0L64 0L0 0Z" fill="#d7e0ff"></path><path d="M0 266L64 266L64 280L129 280L129 269L193 269L193 270L257 270L257 275L321 275L321 283L386 283L386 280L450 280L450 266L450 0L450 0L386 0L386 0L321 0L321 0L257 0L257 0L193 0L193 0L129 0L129 0L64 0L64 0L0 0Z" fill="#c2d0fe"></path><path d="M0 257L64 257L64 256L129 256L129 251L193 251L193 246L257 246L257 241L321 241L321 252L386 252L386 257L450 257L450 245L450 0L450 0L386 0L386 0L321 0L321 0L257 0L257 0L193 0L193 0L129 0L129 0L64 0L64 0L0 0Z" fill="#afbffd"></path><path d="M0 222L64 222L64 211L129 211L129 215L193 215L193 210L257 210L257 228L321 228L321 217L386 217L386 217L450 217L450 213L450 0L450 0L386 0L386 0L321 0L321 0L257 0L257 0L193 0L193 0L129 0L129 0L64 0L64 0L0 0Z" fill="#9caefb"></path><path d="M0 195L64 195L64 188L129 188L129 190L193 190L193 191L257 191L257 200L321 200L321 187L386 187L386 191L450 191L450 194L450 0L450 0L386 0L386 0L321 0L321 0L257 0L257 0L193 0L193 0L129 0L129 0L64 0L64 0L0 0Z" fill="#8b9df9"></path><path d="M0 159L64 159L64 163L129 163L129 172L193 172L193 156L257 156L257 167L321 167L321 164L386 164L386 166L450 166L450 176L450 0L450 0L386 0L386 0L321 0L321 0L257 0L257 0L193 0L193 0L129 0L129 0L64 0L64 0L0 0Z" fill="#7a8bf5"></path><path d="M0 131L64 131L64 137L129 137L129 133L193 133L193 131L257 131L257 142L321 142L321 142L386 142L386 129L450 129L450 134L450 0L450 0L386 0L386 0L321 0L321 0L257 0L257 0L193 0L193 0L129 0L129 0L64 0L64 0L0 0Z" fill="#6a7af1"></path><path d="M0 117L64 117L64 99L129 99L129 109L193 109L193 109L257 109L257 104L321 104L321 107L386 107L386 106L450 106L450 102L450 0L450 0L386 0L386 0L321 0L321 0L257 0L257 0L193 0L193 0L129 0L129 0L64 0L64 0L0 0Z" fill="#5b68ec"></path><path d="M0 84L64 84L64 91L129 91L129 80L193 80L193 76L257 76L257 78L321 78L321 77L386 77L386 82L450 82L450 86L450 0L450 0L386 0L386 0L321 0L321 0L257 0L257 0L193 0L193 0L129 0L129 0L64 0L64 0L0 0Z" fill="#4d55e7"></path><path d="M0 62L64 62L64 50L129 50L129 56L193 56L193 50L257 50L257 46L321 46L321 59L386 59L386 54L450 54L450 46L450 0L450 0L386 0L386 0L321 0L321 0L257 0L257 0L193 0L193 0L129 0L129 0L64 0L64 0L0 0Z" fill="#3f41e0"></path><path d="M0 24L64 24L64 34L129 34L129 24L193 24L193 31L257 31L257 36L321 36L321 21L386 21L386 30L450 30L450 36L450 0L450 0L386 0L386 0L321 0L321 0L257 0L257 0L193 0L193 0L129 0L129 0L64 0L64 0L0 0Z" fill="#332ad8"></path></svg>