<svg width="101" height="101" viewBox="0 0 101 101" fill="none" xmlns="http://www.w3.org/2000/svg">
<path d="M19.0461 64.2064C26.4064 64.2064 32.3968 58.2211 32.3968 50.8533C32.3968 43.4879 26.4089 37.5001 19.0461 37.5001C11.6834 37.5001 5.693 43.4879 5.693 50.8533C5.693 58.2186 11.6834 64.2064 19.0461 64.2064Z" fill="#191650"/>
<path d="M2.54152 94.9282H18.21C18.4768 94.9282 18.7285 94.8697 18.9699 94.7909C19.219 94.8723 19.4782 94.9282 19.7501 94.9282H35.5482C36.9512 94.9282 38.0898 93.7921 38.0898 92.3867V69.6858C38.0898 68.2803 36.9512 67.1443 35.5482 67.1443H27.6339C26.3149 67.1443 25.217 68.1507 25.1026 69.4622L23.4811 87.9415L20.7515 89.1589V69.6858C20.7515 68.2803 19.6129 67.1443 18.21 67.1443C16.8071 67.1443 15.6685 68.2803 15.6685 69.6858V88.7269L12.7864 87.6594L11.4216 69.4952C11.3225 68.1711 10.2169 67.1443 8.88769 67.1443H2.54152C1.1386 67.1443 0 68.2803 0 69.6858V92.3867C0 93.7896 1.1386 94.9282 2.54152 94.9282Z" fill="#191650"/>
<path d="M92.7401 6.07422H44.7282C40.1738 6.07422 36.4708 9.77721 36.4708 14.3265V41.3912C36.4708 45.9456 40.1763 49.6486 44.7282 49.6486H49.275V58.549C49.275 59.0293 49.5495 59.4715 49.9841 59.685C50.162 59.774 50.3551 59.8197 50.5457 59.8197C50.8202 59.8197 51.0922 59.7308 51.3184 59.5554L64.2344 49.6511H92.7401C97.297 49.6511 101 45.9481 101 41.3937V14.3265C101 9.77721 97.297 6.07422 92.7401 6.07422ZM98.4585 41.3912C98.4585 44.5427 95.8915 47.1071 92.7401 47.1071H63.8023C63.5253 47.1071 63.2508 47.1985 63.0297 47.3714L51.8165 55.9719V48.3804C51.8165 47.6789 51.2472 47.1096 50.5457 47.1096H44.7282C41.5767 47.1096 39.0123 44.5452 39.0123 41.3937V14.3265C39.0123 11.1776 41.5767 8.61574 44.7282 8.61574H92.7477C95.8992 8.61574 98.461 11.1776 98.461 14.3265L98.4585 41.3912Z" fill="#191650"/>
<path d="M73.1373 21.5876H63.0475C62.346 21.5876 61.7767 22.1569 61.7767 22.8584V32.9457C61.7767 33.6472 62.346 34.2165 63.0475 34.2165H73.1373C73.8362 34.2165 74.4081 33.6472 74.4081 32.9457V22.8584C74.4081 22.1544 73.8388 21.5876 73.1373 21.5876ZM71.8666 31.6724H64.3182V24.1266H71.8666V31.6724Z" fill="#191650"/>
<path d="M86.2338 21.5876H76.1414C75.4399 21.5876 74.8706 22.1569 74.8706 22.8584V32.9457C74.8706 33.6472 75.4399 34.2165 76.1414 34.2165H86.2338C86.9352 34.2165 87.5045 33.6472 87.5045 32.9457V22.8584C87.5045 22.1544 86.9352 21.5876 86.2338 21.5876ZM84.963 31.6724H77.4121V24.1266H84.963V31.6724Z" fill="#191650"/>
<path d="M59.7613 21.5876H49.674C48.9725 21.5876 48.4032 22.1569 48.4032 22.8584V32.9457C48.4032 33.6472 48.9725 34.2165 49.674 34.2165H59.7613C60.4628 34.2165 61.0321 33.6472 61.0321 32.9457V22.8584C61.0321 22.1544 60.4628 21.5876 59.7613 21.5876ZM58.4905 31.6724H50.9448V24.1266H58.4905V31.6724Z" fill="#191650"/>
</svg>
