<svg width="101" height="101" viewBox="0 0 101 101" fill="none" xmlns="http://www.w3.org/2000/svg">
<path d="M12.9767 93.3847C10.0142 93.3847 7.61426 90.9847 7.61426 88.0243V12.9756C7.61426 10.0152 10.0142 7.61523 12.9767 7.61523H88.0254C90.9858 7.61523 93.3857 10.0152 93.3857 12.9756V88.0243C93.3857 90.9847 90.9858 93.3847 88.0254 93.3847H12.9767Z" fill="#191650"/>
<path d="M18.1016 29.2774C19.6453 30.1148 21.7973 30.7565 24.2744 30.7565C26.1702 30.7565 27.9722 30.3732 27.9722 28.5711C27.9722 24.3941 17.362 27.0295 17.362 18.8629C17.362 13.463 22.6348 11.9839 27.1327 11.9839C29.2889 11.9839 31.4097 12.3047 32.9242 12.8193L32.5347 17.4484C30.993 16.7401 29.2576 16.4192 27.5535 16.4192C26.0431 16.4192 23.5348 16.5484 23.5348 18.5088C23.5348 22.1421 34.143 19.6983 34.143 27.8003C34.143 33.6189 29.2576 35.1939 24.2744 35.1939C22.1848 35.1939 19.5786 34.8731 17.5891 34.2294L18.1016 29.2774Z" fill="white"/>
<path d="M50.5031 30.7565C54.1343 30.7565 55.5801 27.2857 55.5801 23.5899C55.5801 19.6983 54.1343 16.4192 50.5031 16.4192C46.8678 16.4192 45.424 19.6983 45.424 23.5899C45.424 27.2857 46.8678 30.7565 50.5031 30.7565ZM50.5031 11.9839C57.8967 11.9839 61.755 16.388 61.755 23.5899C61.755 30.7252 57.8322 35.1939 50.5031 35.1939C43.172 35.1939 39.2512 30.7252 39.2512 23.5899C39.2512 16.388 43.1074 11.9839 50.5031 11.9839Z" fill="white"/>
<path d="M67.5674 29.2774C69.1132 30.1148 71.2632 30.7565 73.7402 30.7565C75.636 30.7565 77.436 30.3732 77.436 28.5711C77.436 24.3941 66.8279 27.0295 66.8279 18.8629C66.8279 13.463 72.1007 11.9839 76.6027 11.9839C78.7547 11.9839 80.8755 12.3047 82.388 12.8193L82.0026 17.4484C80.461 16.7401 78.7235 16.4192 77.0194 16.4192C75.509 16.4192 73.0007 16.5484 73.0007 18.5088C73.0007 22.1421 83.6088 19.6983 83.6088 27.8003C83.6088 33.6189 78.7235 35.1939 73.7402 35.1939C71.6507 35.1939 69.0486 34.8731 67.0549 34.2294L67.5674 29.2774Z" fill="white"/>
<path d="M55.7968 47.6334C55.7968 45.1855 55.4739 42.823 54.901 40.5522H51.1594V54.7916L54.901 54.7999C55.4843 52.5083 55.7968 50.1083 55.7968 47.6334Z" fill="white"/>
<path d="M51.1594 72.6641V86.9117H54.901C55.4843 84.6201 55.7968 82.216 55.7968 79.741C55.7968 77.2932 55.4551 74.9411 54.8843 72.6682L51.1594 72.6641Z" fill="white"/>
<path d="M40.4575 63.731C40.4575 72.3433 43.1282 80.3328 47.6865 86.9118H49.3198V72.6725C47.5698 70.1079 46.5657 67.0767 46.5657 63.731C46.5657 60.3873 47.5698 57.354 49.3198 54.7915V40.5522L47.6865 40.5502C43.1282 47.1313 40.4575 55.1186 40.4575 63.731Z" fill="white"/>
</svg>
